<?xml version="1.0" encoding="utf-8"?>
<!-- Generator: Adobe Illustrator 20.1.0, SVG Export Plug-In . SVG Version: 6.00 Build 0)  -->
<svg version="1.1" id="Layer_1" xmlns="http://www.w3.org/2000/svg" xmlns:xlink="http://www.w3.org/1999/xlink" x="0px" y="0px"
	 viewBox="0 0 130.6 130.6" style="enable-background:new 0 0 130.6 130.6;" xml:space="preserve">
<style type="text/css">
	.st0{fill:none;}
	.st1{fill:#B4825B;}
	.st2{opacity:0.13;fill:#FED7A1;}
	.st3{clip-path:url(#SVGID_2_);fill:#F7D3AC;}
	.st4{clip-path:url(#SVGID_2_);fill:url(#SVGID_3_);}
	.st5{clip-path:url(#SVGID_2_);}
	.st6{clip-path:url(#SVGID_5_);fill:#E5C5A1;}
	.st7{opacity:0.4;clip-path:url(#SVGID_5_);fill:#E5C5A1;}
	.st8{clip-path:url(#SVGID_2_);fill:none;stroke:#1A1A1A;stroke-width:3.8705;stroke-miterlimit:10;}
	.st9{fill:#FEEDCF;}
	.st10{fill:#915B3D;}
	.st11{clip-path:url(#SVGID_2_);fill:#644E41;}
	.st12{clip-path:url(#SVGID_2_);fill:none;stroke:#000000;stroke-width:0.9071;stroke-miterlimit:10;}
	.st13{clip-path:url(#SVGID_2_);fill:#42332B;}
	.st14{fill:#E5C5A1;}
	.st15{clip-path:url(#SVGID_7_);fill:#FEEDCF;}
	.st16{clip-path:url(#SVGID_2_);fill:#4F3D32;}
	.st17{opacity:0.51;}
	.st18{fill:#925C3A;}
	.st19{fill:#42332B;}
	.st20{fill:#1A1A1A;}
	.st21{fill:#FFFFFF;}
	.st22{fill:#4F3D32;}
	.st23{opacity:0.42;clip-path:url(#SVGID_9_);fill:#E5C5A1;}
	.st24{opacity:0.3;clip-path:url(#SVGID_2_);fill:#915B3D;}
	.st25{clip-path:url(#SVGID_2_);fill:none;}
	.st26{clip-path:url(#SVGID_11_);}
	.st27{fill:#F2F2F2;}
	.st28{fill:#E6E6E6;}
	.st29{fill:#4D4D4D;}
	.st30{opacity:0.22;}
	.st31{clip-path:url(#SVGID_13_);}
	.st32{fill-rule:evenodd;clip-rule:evenodd;fill:none;}
	.st33{clip-path:url(#SVGID_15_);fill-rule:evenodd;clip-rule:evenodd;fill:none;}
	.st34{fill:#4A4A4A;}
	.st35{opacity:0.21;}
	.st36{fill-rule:evenodd;clip-rule:evenodd;fill:#ED1B2F;}
	.st37{fill:#595959;}
	.st38{fill:#3D3D3D;}
	.st39{fill-rule:evenodd;clip-rule:evenodd;fill:#F7F7F7;}
	.st40{fill-rule:evenodd;clip-rule:evenodd;fill:#3D3D3D;}
	.st41{opacity:9.000000e-02;fill-rule:evenodd;clip-rule:evenodd;}
	.st42{fill-rule:evenodd;clip-rule:evenodd;fill:#595959;}
	.st43{fill:#333333;}
</style>
<pattern  x="-392.4" y="-101" width="62" height="61" patternUnits="userSpaceOnUse" id="New_Pattern" viewBox="0 -61 62 61" style="overflow:visible;">
	<g>
		<rect y="-61" class="st0" width="62" height="61"/>
		<rect y="-61" class="st1" width="62" height="61"/>
		<path class="st2" d="M4.5-55c0,1.1,1,8.9,1,9.8c0,0.9-0.4,8.3-0.4,8.3s0.5,5.1,0.6,6.1s0.7,5.3,0.7,5.3l-0.7-1l-0.2,3.2l-0.5-8.4
			l-1.3-6.1L4-43.5c0,0,0.5-2.1,0.4-3c0-0.9-0.2-4.7-0.2-4.7L4.5-55z"/>
		<path class="st2" d="M14.8-50.3c0,1.1,0.5,9.7,0.5,10.7c0,1-1,8.9-1,8.9s0.2,5.5,0.2,6.7s0.4,5.7,0.4,5.7l-0.7-1.2L13.7-16l0-9.2
			l-1-6.7l0.7-6.1c0,0,0.6-2.3,0.7-3.2c0-1,0.1-5.2,0.1-5.2L14.8-50.3z"/>
		<path class="st2" d="M26.9-52.3c-0.1,0.8,0.2,6.9,0.3,7.6c-0.1,0.6-0.5,6.3-0.5,6.3s0.4,3.9,0.4,4.7c0,0.8,0.6,4,0.6,4l-0.6-0.8
			L27-28c0,0-0.1-1.6-0.3-3.2c-0.1-1.6-0.2-3.2-0.2-3.2s-0.2-1.2-0.5-2.4c-0.2-1.2-0.5-2.4-0.5-2.4s0.1-1.1,0.2-2.2
			c0.1-1.1,0.2-2.2,0.2-2.2s0.4-1.6,0.4-2.3c0-0.7,0.1-3.7,0.1-3.7L26.9-52.3z"/>
		<path class="st2" d="M18.9-28.3c0,0.7,0.6,6.1,0.6,6.7c0,0.6-0.4,5.7-0.4,5.7s0.3,3.5,0.3,4.2c0,0.7,0.4,3.6,0.4,3.6l-0.5-0.7
			l-0.2,2.2l-0.2-5.8l-0.8-4.2l0.3-3.9c0,0,0.3-1.5,0.3-2.1c0-0.6-0.1-3.2-0.1-3.2L18.9-28.3z"/>
		<path class="st2" d="M38.2-49.3c0,0.8,0.3,7.1,0.3,7.8c0,0.3-0.2,2-0.5,3.5c-0.2,1.5-0.5,3-0.5,3s0,4.1-0.1,4.9
			c-0.1,0.8,0,4.2,0,4.2L37-26.8l-0.5,2.5c0,0,0.1-1.7,0.3-3.3c0.1-1.7,0.2-3.3,0.2-3.3l-0.5-4.9l0.7-4.4c0,0,0.5-1.6,0.5-2.3
			c0-0.7,0.1-3.8,0.1-3.8L38.2-49.3z"/>
		<path class="st2" d="M29.8-21.3c0,0.3,0.2,2.9,0.2,3.2s-0.2,2.7-0.2,2.7s0.1,1.7,0.1,2s0.2,1.7,0.2,1.7L29.8-12l-0.1,1l-0.1-2.8
			l-0.3-2l0.2-1.8c0,0,0.2-0.7,0.2-1s0-1.5,0-1.5L29.8-21.3z"/>
		<path class="st2" d="M49.5-60.7c0,0.7,0.7,6.3,0.8,6.9c0,0.3-0.1,1.8-0.2,3.2c-0.1,1.4-0.2,2.7-0.2,2.7s0.3,3.6,0.3,4.3
			c0,0.7,0.3,3.7,0.3,3.7L50-40.6l-0.3,2.2c0,0,0-1.5,0-3c0-1.5-0.1-3-0.1-3l-0.8-4.3l0.3-4c0,0,0.3-1.5,0.3-2.1
			c0-0.6-0.1-3.3-0.1-3.3L49.5-60.7z"/>
		<path class="st2" d="M46.1-17.3c0,0.3,0.2,2.6,0.2,2.9c0,0.3-0.2,2.4-0.2,2.4s0.1,1.5,0.1,1.8s0.2,1.6,0.2,1.6l-0.2-0.3L46-8
			L46-10.5l-0.3-1.8l0.2-1.7c0,0,0.2-0.6,0.2-0.9s0-1.4,0-1.4L46.1-17.3z"/>
		<path class="st2" d="M46.1-32.7c0,0.3,0.2,2.2,0.2,2.4s-0.2,2-0.2,2s0.1,1.2,0.1,1.5c0,0.3,0.1,1.3,0.1,1.3l-0.2-0.3L46-25l0-2
			l-0.3-1.5l0.1-1.4c0,0,0.1-0.5,0.1-0.7c0-0.2,0-1.1,0-1.1L46.1-32.7z"/>
		<path class="st2" d="M20.8-59.4c0.1,0.1,0.4,1.3,0.4,1.5c0,0.1-0.1,1.3-0.2,1.3c0,0,0,0.2,0,0.4c0,0.2-0.1,0.4-0.1,0.5
			c0,0.2-0.2,0.8-0.2,0.8l0-0.2l-0.3,0.4c0,0,0.1-0.3,0.3-0.6c0.1-0.3,0.2-0.6,0.2-0.6c0,0,0-0.9,0-0.9c0,0,0-0.2,0.1-0.4
			c0-0.2,0-0.4,0-0.4S21-58,21-58.1c0-0.1-0.1-0.7-0.1-0.7s0-0.1,0-0.3C20.8-59.2,20.8-59.4,20.8-59.4z"/>
		<path class="st2" d="M6.1-21c0,0.2-0.2,1.5-0.3,1.6c0,0.1-0.2,0.4-0.3,0.7c-0.1,0.3-0.3,0.5-0.3,0.5s-0.3,0.8-0.4,0.9
			c0,0.1-0.4,0.8-0.4,0.8l0-0.2L4-16.3c0,0,0.2-0.3,0.4-0.6c0.2-0.3,0.4-0.6,0.4-0.6s0.1-0.2,0.2-0.5c0.1-0.2,0.1-0.5,0.1-0.5
			s0.1-0.2,0.2-0.4c0.1-0.2,0.2-0.4,0.2-0.4s0.2-0.3,0.2-0.4c0-0.1,0.2-0.7,0.2-0.7L6.1-21z"/>
		<path class="st2" d="M26.4-6c0,0.1,0.1,0.9,0.1,0.9s-0.1,0.8-0.1,0.8s0,0.5,0,0.6c0,0.1,0.1,0.5,0.1,0.5l-0.1-0.1l0,0.3l0-0.8
			l-0.1-0.6l0-0.5c0,0,0-0.2,0-0.3s0-0.5,0-0.5L26.4-6z"/>
		<path class="st2" d="M37.4-11.7c0,0.1,0.1,0.8,0.1,0.8c0,0.1-0.1,0.7-0.1,0.7s0,0.4,0,0.5c0,0.1,0,0.4,0,0.4l-0.1-0.1l0,0.3l0-0.7
			l-0.1-0.5l0-0.5c0,0,0-0.2,0-0.3c0-0.1,0-0.4,0-0.4L37.4-11.7z"/>
		<path class="st2" d="M55.9-31c-0.1,1,0.1,8.7,0.1,9.6c0,0.4-0.3,2.4-0.5,4.3c-0.2,1.9-0.5,3.7-0.5,3.7s0.2,4.9,0.2,6
			c0,1,0.5,5.1,0.5,5.1l-0.7-1l-0.3,3.1c0,0-0.1-2-0.1-4.1c0-2-0.1-4.1-0.1-4.1s-0.2-1.5-0.5-3c-0.2-1.5-0.4-3-0.4-3l0.7-5.4
			c0,0,0.6-2,0.7-2.9c0.1-0.9,0.3-4.6,0.3-4.6L55.9-31z"/>
	</g>
</pattern>
<g>
	<defs>
		<rect id="SVGID_1_" width="130.6" height="130.6"/>
	</defs>
	<clipPath id="SVGID_2_">
		<use xlink:href="#SVGID_1_"  style="overflow:visible;"/>
	</clipPath>
	<circle class="st3" cx="67.3" cy="192" r="163.9"/>
	<pattern  id="SVGID_3_" xlink:href="#New_Pattern" patternTransform="matrix(1 0 0 1 -74 -7.6667)">
	</pattern>
	<path class="st4" d="M-20.5,221.8c0,0,26.7-51.2,6.2-144.1c-20.6-93.6,163-97.4,163.5-11c0.3,52.9-36.4,50.3,10,160.6
		C159.3,227.3,107.9,352.7-20.5,221.8z"/>
	<g class="st5">
		<defs>
			<path id="SVGID_4_" d="M-16,223.7c0,0,17.8-55.7,4.1-143.9C-26.1-12,143.6-14.6,146.6,69.1c2.2,60.4-32.8,34.4,13.4,156.9
				C160,226,108.4,350.5-16,223.7z"/>
		</defs>
		<clipPath id="SVGID_5_">
			<use xlink:href="#SVGID_4_"  style="overflow:visible;"/>
		</clipPath>
		<path class="st6" d="M169.2,104.1c0.2,29.4-59.3,61.4-101.7,61.7s-91.8-27.3-92-56.7C-24.8,79.7,31.7-81.3,74.1-81.7
			S169,74.7,169.2,104.1z"/>
		<ellipse class="st7" cx="67.7" cy="230" rx="48.1" ry="99.8"/>
	</g>
	<path class="st8" d="M140.1,17.9"/>
	<g class="st5">
		<path class="st9" d="M68.1,121.9c-46.9-0.2-76-17.8-76-46.1c0-18.5,4.4-32.6,13.4-42.9c12.4-14.2,34-21.5,64.3-21.5
			c27.5,0,47.7,6.8,60.1,20.3c13.7,14.9,14.3,34.1,13.4,44.3c-2.6,30.5-27.6,45.9-74.6,45.9L68.1,121.9z"/>
		<path class="st10" d="M69.8,17.3c25.8,0,44.5,6.2,55.8,18.4c12.1,13.2,12.6,30.6,11.9,39.8c-1.1,12.6-6.2,21.9-15.8,28.5
			c-11.5,7.9-29.3,12-52.9,12l-0.7,0c-22.9-0.1-41.5-4.4-54-12.5C3.4,96.5-2,87.2-2,75.7c0-17,3.9-29.8,12-39.1
			C21.2,23.8,41.3,17.3,69.8,17.3 M69.8,5.4C-2,5.4-13.8,44.6-13.8,75.7c0,31.1,30.1,51.9,81.9,52c0.2,0,0.5,0,0.7,0
			c54.3,0,77.9-20.4,80.5-51.3C151.8,45.7,137.3,5.4,69.8,5.4L69.8,5.4z"/>
	</g>
	<g class="st5">
		<path class="st10" d="M82.8,60.6c0,10.9,10,15.2,29,15.2c11.9,0,26.2,4.2,32.7,13.2c1.4-3.3,2.8-8,4.1-14
			c2.3-10.6-35.3-34-46.1-34S82.8,49.7,82.8,60.6z"/>
	</g>
	<g class="st5">
		<path class="st10" d="M50.5,60.5c0,10.9-10,15.2-29,15.2c-11.9,0-25.8,4.2-32.3,13.2c-2.2-3.5-4.3-10.6-3.8-14.8
			c1.2-10.8,34.5-33.2,45.4-33.2S50.5,49.6,50.5,60.5z"/>
	</g>
	<path class="st11" d="M83.1,77.6c0,4.2-7.5,11.1-16.1,11.1s-16.8-6.9-16.8-11.1s7.9,1.2,16.6,1.2S83.1,73.4,83.1,77.6z"/>
	<path class="st12" d="M-12.8,17"/>
	
		<ellipse transform="matrix(0.4733 -0.8809 0.8809 0.4733 -34.0717 111.8587)" class="st13" cx="76.5" cy="84.4" rx="1.7" ry="1.2"/>
	<ellipse transform="matrix(0.8157 -0.5785 0.5785 0.8157 -38.2873 48.7615)" class="st13" cx="57.4" cy="84.5" rx="1.2" ry="1.7"/>
	<g class="st5">
		<path class="st14" d="M124.4,84.1c0,0-1.6,1.1-4.3,3c-1.4,1-3.1,2-5.2,3.2c-2,1.3-4.4,2.4-7,3.7c-1.3,0.6-2.7,1.2-4.1,1.9
			c-0.7,0.3-1.5,0.6-2.2,0.9c-0.8,0.3-1.5,0.6-2.3,0.8c-1.6,0.6-3.2,1.2-4.9,1.6c-0.8,0.2-1.7,0.5-2.6,0.7c-0.4,0.1-0.9,0.2-1.3,0.4
			c-0.4,0.1-0.9,0.2-1.3,0.3c-3.6,0.8-7.3,1.6-11.1,2c-1.9,0.2-3.8,0.4-5.8,0.5l-2.9,0.1l-2.9,0c-3.9,0-7.8-0.4-11.6-0.9
			c-1.9-0.3-3.8-0.5-5.6-1c-0.9-0.2-1.8-0.4-2.7-0.6c-0.9-0.2-1.8-0.5-2.7-0.7c-0.9-0.2-1.8-0.5-2.6-0.7c-0.9-0.3-1.7-0.5-2.5-0.8
			c-1.7-0.6-3.3-1.1-4.8-1.8c-3.1-1.2-6-2.5-8.6-3.8c-5.2-2.6-9.2-5.3-11.9-7.3c-2.7-2-4.1-3.4-4.1-3.4s1.6,1,4.6,2.6
			c1.5,0.8,3.3,1.7,5.4,2.7c2.1,1,4.5,2,7.1,3c1.3,0.5,2.7,1,4.2,1.5c0.7,0.2,1.5,0.5,2.2,0.8c0.7,0.2,1.5,0.5,2.3,0.7
			c1.5,0.5,3.2,0.9,4.8,1.4c1.7,0.4,3.3,0.9,5,1.2c3.4,0.8,7,1.3,10.7,1.8c3.7,0.4,7.4,0.7,11.1,0.7l2.8,0l2.8-0.1
			c0.9-0.1,1.9,0,2.8-0.1c0.9-0.1,1.8-0.2,2.8-0.2c3.7-0.3,7.3-0.8,10.7-1.5c1.7-0.3,3.4-0.8,5.1-1.1c1.7-0.3,3.2-0.8,4.8-1.3
			c0.8-0.2,1.5-0.4,2.3-0.7c0.7-0.3,1.5-0.5,2.2-0.7c1.4-0.5,2.9-0.9,4.2-1.4c1.3-0.5,2.6-1,3.8-1.5c1.2-0.4,2.3-0.9,3.4-1.4
			c2.1-1,4-1.7,5.5-2.5C122.6,84.9,124.4,84.1,124.4,84.1z"/>
	</g>
	<g class="st5">
		<defs>
			<path id="SVGID_6_" d="M137.7,70.3c-2.2,27-22.8,45.6-69.5,45.5C24.1,115.7-2.4,97.4-2.4,70.3S8.7,6.1,69.9,6.1
				C127.4,6.1,139.9,43.5,137.7,70.3z"/>
		</defs>
		<clipPath id="SVGID_7_">
			<use xlink:href="#SVGID_6_"  style="overflow:visible;"/>
		</clipPath>
		<path class="st15" d="M20.3,147c-30.6,2.6-58.9-27.9-63.3-68.2S-26.1,3.7,4.5,1.1S63.4,29,67.8,69.3
			C72.1,109.6,50.9,144.3,20.3,147z"/>
		<ellipse class="st15" cx="68.4" cy="139.6" rx="86.6" ry="53.3"/>
		<ellipse class="st15" cx="68.3" cy="25.1" rx="81.3" ry="49.1"/>
	</g>
	<path class="st16" d="M102.2,47.1"/>
	<g class="st5">
		<g>
			<path class="st10" d="M119.3,17c0,0,30.1,40.2,28.6,65.2c0,0,11.2-26-4.3-70.1C140.4,3.1,119.3,17,119.3,17z"/>
		</g>
		<g class="st17">
			<g>
				<path class="st18" d="M3.2,28c9.5,2.9,31.8,16.7,67.4,7.4l-14-3.6c0,0,33.3,2.9,47.3-3.3l-12.6-4.3c4.1,0.6,51.4,12.2,80-12.2
					c0,0-33.6-13.5-42.4-13.8c0,0,14.6,2.1,15.3-6.7c0,0,3.1-0.4-8.2-3.8s-55.6-19-60.2-15.1L67.9-24c0,0,15.6-14.5-8.6-4.6
					S-3.9-3.5,1.7,6.9c0,0-17.5-4.4-14.9,3.6l6.3,1.6c0,0-9,10.5-4,7.8c2.5-1.3-11.8,0.2-11.8,0.2s1.4-3.7,4,5.3l-3.7,6.1
					c0,0,2.9-1.5,9.6,8.3l0.6,2c0,0-2.8,10.4,0.9,22.5C-11.3,64.4-12.2,34.1,3.2,28z"/>
			</g>
		</g>
		<g>
			<g>
				<path class="st10" d="M5.9,27c0,0,38.6,11.7,64.6,4.9l-14-3.6c0,0,33.3,2.9,47.3-3.3l-12.6-4.3c0,0,55.4,8.7,80-12.2
					c0,0-33.6-13.5-42.4-13.8c0,0,14.6,2.1,15.3-6.7c0,0,3.1-0.4-8.2-3.8s-55.6-19-60.2-15.1l14.2-4.6c0,0-6.3-6.5-30.6,3.4
					S-9.1-10.1-3.6,0.3c0,0-12.3-1.3-17.5,4.6l6.3,1.6c0,0-27.4,15.7-22.4,13c2.5-1.3,14.4-3,14.4-3s-12,5.5-9.4,14.5l9.7-3.1
					c0,0-6.4,11.5,0.4,21.3l3.9-5.8c0,0-2,6.6,3.8,34C-14.5,77.5-8.7,53,5.9,27z"/>
			</g>
		</g>
	</g>
	<g class="st5">
		<g>
			<path class="st19" d="M92.7,60.1c0,6.4,5.6,8.5,12.3,8.5c6.7,0,11.9-2.1,11.9-8.5s-5.4-11.6-12.1-11.6
				C98.1,48.5,92.7,53.7,92.7,60.1z"/>
			<path class="st20" d="M94.3,59.1c0,5.2,4.7,6.9,10.3,6.9c5.6,0,10-1.7,10-6.9s-5.2-0.8-10.8-0.8S94.3,53.9,94.3,59.1z"/>
			<path class="st9" d="M95.8,59.7c0,4.6,4,6.1,8.8,6.1s8.5-1.5,8.5-6.1s-3.9-8.3-8.6-8.3C99.7,51.4,95.8,55.1,95.8,59.7z"/>
			<g>
				<path class="st1" d="M106.6,58.1c1.3,1.4,1.1,3.6-0.4,4.8s-3.7,1.1-5-0.3s-1.1-3.6,0.4-4.8C103.1,56.6,105.3,56.7,106.6,58.1z"
					/>
				<path d="M105.5,59.1c0.7,0.8,0.6,2.1-0.2,2.8c-0.9,0.7-2.1,0.6-2.9-0.2c-0.7-0.8-0.6-2.1,0.2-2.8
					C103.5,58.2,104.7,58.3,105.5,59.1z"/>
				<path class="st21" d="M105.7,58.3c0.3,0.3,0.3,0.8-0.1,1.1c-0.3,0.3-0.9,0.3-1.2-0.1c-0.3-0.3-0.3-0.8,0.1-1.1
					C104.8,57.9,105.4,57.9,105.7,58.3z"/>
				<path class="st21" d="M106.2,59.9c0.2,0.2,0.2,0.5-0.1,0.7c-0.2,0.2-0.5,0.2-0.7-0.1c-0.2-0.2-0.2-0.5,0.1-0.7
					C105.7,59.7,106,59.7,106.2,59.9z"/>
			</g>
		</g>
		<path class="st20" d="M95.7,59.7c0,0,6.4-1.7,17.5,0.2c0.3-2.6-1.5-8.1-9.4-8C95.1,52.1,95.7,59.7,95.7,59.7z"/>
		<path class="st19" d="M95.7,58.8c0,0,6.4-1.7,17.5,0.2c-0.2-2.2-1.5-8.2-9.4-8S95.7,58.8,95.7,58.8z"/>
	</g>
	<g class="st5">
		<g>
			<path class="st19" d="M16.6,60.1c0,6.4,5.6,8.5,12.3,8.5s11.9-2.1,11.9-8.5s-5.4-11.6-12.1-11.6S16.6,53.7,16.6,60.1z"/>
			<path class="st20" d="M18.2,59.1c0,5.2,4.7,6.9,10.3,6.9s10-1.7,10-6.9s-5.2-0.8-10.8-0.8S18.2,53.9,18.2,59.1z"/>
			<path class="st9" d="M19.7,59.7c0,4.6,4,6.1,8.8,6.1s8.5-1.5,8.5-6.1s-3.9-8.3-8.6-8.3S19.7,55.1,19.7,59.7z"/>
			<g>
				<path class="st1" d="M30.5,58.1c1.3,1.4,1.1,3.6-0.4,4.8c-1.5,1.2-3.7,1.1-5-0.3S24,59,25.5,57.8C27,56.6,29.2,56.7,30.5,58.1z"
					/>
				<path d="M29.4,59.1c0.7,0.8,0.6,2.1-0.2,2.8c-0.9,0.7-2.1,0.6-2.9-0.2c-0.7-0.8-0.6-2.1,0.2-2.8C27.3,58.2,28.6,58.3,29.4,59.1z
					"/>
				<path class="st21" d="M29.5,58.3c0.3,0.3,0.3,0.8-0.1,1.1c-0.3,0.3-0.9,0.3-1.2-0.1C28,59,28,58.5,28.4,58.2
					C28.7,57.9,29.2,57.9,29.5,58.3z"/>
				<path class="st21" d="M30.1,59.9c0.2,0.2,0.2,0.5-0.1,0.7s-0.5,0.2-0.7-0.1c-0.2-0.2-0.2-0.5,0.1-0.7
					C29.6,59.7,29.9,59.7,30.1,59.9z"/>
			</g>
		</g>
		<path class="st20" d="M19.6,59.7c0,0,6.4-1.7,17.5,0.2c0.3-2.6-1.5-8.1-9.4-8C19,52.1,19.6,59.7,19.6,59.7z"/>
		<path class="st19" d="M19.6,58.8c0,0,6.4-1.7,17.5,0.2c-0.2-2.2-1.5-8.2-9.4-8S19.6,58.8,19.6,58.8z"/>
	</g>
	<g class="st5">
		<path class="st22" d="M125,83.7c0,0-0.4,0.2-1.2,0.7c-0.8,0.4-1.9,1.1-3.4,1.8c-1.5,0.8-3.3,1.7-5.4,2.6c-2.1,1-4.5,2-7.2,3
			c-2.7,1-5.6,2-8.8,2.9c-3.2,0.9-6.5,1.8-10,2.4c-3.5,0.7-7.2,1.3-11,1.6c-3.8,0.4-7.6,0.5-11.4,0.5c-3.8,0-7.7-0.3-11.4-0.7
			c-3.8-0.4-7.4-1.1-10.9-1.8c-3.5-0.7-6.9-1.7-10-2.7c-3.1-1-6-2.1-8.7-3.2c-5.3-2.2-9.5-4.5-12.3-6.2c-1.4-0.8-2.5-1.6-3.3-2
			c-0.7-0.5-1.2-0.7-1.2-0.6c0-0.1,0.5,0.1,1.3,0.4c0.8,0.3,2,0.8,3.6,1.4c1.5,0.6,3.4,1.3,5.5,2.1c2.1,0.8,4.6,1.6,7.3,2.4
			c2.7,0.8,5.6,1.6,8.7,2.4c3.1,0.8,6.4,1.4,9.8,2c3.4,0.6,7,1,10.6,1.3c3.6,0.3,7.3,0.5,11,0.5c3.7,0,7.4-0.1,11-0.3
			c3.6-0.3,7.2-0.6,10.7-1.1c3.4-0.5,6.8-1.1,9.9-1.8c3.1-0.7,6.1-1.4,8.8-2.1c1.4-0.4,2.6-0.7,3.9-1.1c1.2-0.3,2.4-0.7,3.5-1
			c2.2-0.7,4.1-1.3,5.6-1.8C123.2,84.3,125,83.7,125,83.7z"/>
	</g>
	<g class="st5">
		<defs>
			<path id="SVGID_8_" d="M-1.1,81.2c0,0,3.6,33.3,66.1,34.1s72.8-26.4,74-49.1c17.2,37.6,19,81.9,19,81.9L43.1,210.3l-69.7-35.9
				l-11.8-61.6l22.5-34L-1.1,81.2z"/>
		</defs>
		<clipPath id="SVGID_9_">
			<use xlink:href="#SVGID_8_"  style="overflow:visible;"/>
		</clipPath>
		<path class="st23" d="M136.8,81.6c0.1,22.7-38.3,109.1-69.3,109.3S-1.3,104-1.4,81.3s38.6-15,69.5-15.3S136.7,58.9,136.8,81.6z"/>
	</g>
	<path class="st24" d="M82.7,75.7c0,0-8.2-14.8-16.1-14.6S50.7,74,50.5,76.4C50.5,76.4,66.4,88.4,82.7,75.7z"/>
	<circle class="st25" cx="67.3" cy="192" r="163.9"/>
	<g class="st5">
		<defs>
			<circle id="SVGID_10_" cx="67.3" cy="192" r="163.9"/>
		</defs>
		<clipPath id="SVGID_11_">
			<use xlink:href="#SVGID_10_"  style="overflow:visible;"/>
		</clipPath>
		<g class="st26">
			<g>
				<path class="st27" d="M150.7,226.4l-80.6-6.2c-1.8-0.1-3.6-0.1-5.4,0l-80.3,6.2c-8,0.6-15.5,3.9-21.3,9.4l-60.1,56.4
					c-7.1,6.6-11.1,15.9-11.1,25.5v313.1c0,19.4,15.7,35,35,35h280.8c19.4,0,35-15.7,35-35.1L242.8,316c0-9.8-4.1-19.2-11.4-25.8
					l-59.7-54.7C165.9,230.2,158.5,227,150.7,226.4z"/>
				<g>
					<polygon class="st28" points="195.2,352.1 149.3,384.9 103.3,352.1 100.1,286.5 198.4,286.5 					"/>
				</g>
				<rect x="49.9" y="218.1" class="st21" width="35.1" height="445.9"/>
				<polygon class="st29" points="-31.4,229.8 -52.7,248.8 -51.9,664.8 -36.1,664.8 				"/>
				<polygon class="st29" points="182.4,243.6 200.8,262.1 201.1,678.5 185.3,678.5 				"/>
				<circle class="st27" cx="67.5" cy="288.5" r="9.5"/>
				<circle class="st27" cx="67.5" cy="359.9" r="9.5"/>
			</g>
			<path class="st30" d="M152,202.8l8,21.7c1.6,4.4,0.3,9.3-3.4,12.3l-47.8,38.4c-5.3,4.3-13.2,2.6-16.4-3.4l-19.3-36.5
				c-3-5.7-0.4-12.8,5.6-15.2l59.1-23.6C143.5,194.2,149.9,197.1,152,202.8z"/>
			<path class="st30" d="M-17.2,203.1l-7.8,21.1c-1.7,4.5-0.3,9.6,3.5,12.6l47.3,38c5.5,4.4,13.6,2.7,16.9-3.5l18.9-35.8
				c3.1-5.9,0.4-13.2-5.8-15.6l-58.4-23.3C-8.4,194.3-15,197.2-17.2,203.1z"/>
			<path class="st21" d="M-13.7,175L-26,220.6c-1.1,4,0.7,8.2,4.2,10.2l51,29.3c4.1,2.3,9.3,1.2,12-2.7l20.6-29.3
				c3.1-4.4,1.7-10.4-2.9-13.1l-67.3-39.4C-6.4,165.1-11.2,165.8-13.7,175z"/>
			<path class="st21" d="M146.5,174.8l14.8,46.7c0.9,3.4-0.6,7.1-3.7,8.8l-52.8,30.3c-3.5,2-8,1-10.3-2.3L72.4,227
				c-2.6-3.8-1.5-9,2.5-11.3l65.6-37.9C138.3,169.7,141.3,168.4,146.5,174.8z"/>
			<g>
				<defs>
					<rect id="SVGID_12_" x="117.6" y="124.5" width="97.4" height="161.3"/>
				</defs>
				<clipPath id="SVGID_13_">
					<use xlink:href="#SVGID_12_"  style="overflow:visible;"/>
				</clipPath>
				<g class="st31">
					<path class="st0" d="M178.8,222.6l-4-1c-1.3-0.3-2.1-1.7-1.8-3l4.9-20.3c0.3-1.3,1.7-2.1,3-1.8l2,0.5l2,0.5
						c1.3,0.3,2.1,1.7,1.8,3l-4.9,20.3C181.4,222.1,180.1,222.9,178.8,222.6z"/>
					<path class="st0" d="M179.5,222.8l-1.1-0.3c-0.9-0.2-1.5-1.1-1.3-2.1l5-20.7c0.2-0.9,1.1-1.5,2.1-1.3l1.1,0.3
						c0.9,0.2,1.5,1.1,1.3,2.1l-5,20.7C181.4,222.4,180.4,223,179.5,222.8z"/>
					<path class="st32" d="M169.7,283.9l-15.3-3.7l16-66.3c0.5-1.9,2.3-3,4.1-2.6l9.2,2.2c1.8,0.4,2.9,2.3,2.4,4.2L169.7,283.9z
						 M152.3,290c-4.8,20-17.5,79.1-17.6,97.2l4.4,1.1c8.1-16,23.2-73.4,28.3-94.6L152.3,290z"/>
					<path class="st0" d="M183.5,228.2l2.6-10.5c0.4-1.9-0.7-3.8-2.4-4.2l-9.2-2.2c-1.8-0.4-3.6,0.7-4.1,2.6l-2.5,10.5L183.5,228.2z
						"/>
					<path class="st0" d="M183.5,228.2l2.4-9.5c0.4-1.7-0.7-3.4-2.5-3.9l-9.2-2.2c-1.8-0.4-3.6,0.6-4,2.3l-2.3,9.5L183.5,228.2z"/>
					<path class="st32" d="M134.7,387c-0.7,4.5-0.8,8.4,0.3,8.7c1.1,0.3,2.8-3.2,4.2-7.6L134.7,387z"/>
					
						<rect x="156.1" y="278.8" transform="matrix(0.2334 -0.9724 0.9724 0.2334 -155.5619 376.6552)" class="st32" width="10" height="16.3"/>
					<g>
						<defs>
							<path id="SVGID_14_" d="M166.5,229.5l-13.3,50.1l-0.3-0.1l-3.1,12.9l0.3,0.1c-5.1,22.2-15.2,77.1-15.4,94.6
								c-0.7,4.5-0.8,8.3,0.3,8.6c1.1,0.3,2.7-3.2,4.2-7.5c7.8-15.5,22.5-71.6,28.2-94.5l2,0.5l2.3-9.7l-0.3-0.1l14.6-66.6
								c0.4-1.9-0.7-3.8-2.4-4.2l-9.2-2.2c-1.8-0.4-3.6,0.7-4.1,2.6l-0.6,3L166.5,229.5z"/>
						</defs>
						<clipPath id="SVGID_15_">
							<use xlink:href="#SVGID_14_"  style="overflow:visible;"/>
						</clipPath>
						<path class="st33" d="M139.8,406l-6.7-1.6l45.4-189.3c0.2-0.8,1-1.3,1.8-1.1l3.5,0.8c1.6,0.4,2.6,2,2.2,3.6L139.8,406z"/>
					</g>
					<path class="st32" d="M184.2,217.7l-13.9,49.5c-0.6,1.9-2.6,3.1-4.6,2.6l0,0l15.7-55.4L184.2,217.7z"/>
					<g>
						<path class="st32" d="M165.2,269.6L165.2,269.6c0.9,0.2,1.7-0.1,1.9-0.7l14.6-55.3c0.2-0.6-0.6-0.7-1.5-0.9l-2.4-0.6
							c-0.9-0.2-1.6-0.5-1.8,0.1l-12.2,55.9C163.7,268.8,164.3,269.4,165.2,269.6z"/>
						<path class="st32" d="M165.8,269.8L165.8,269.8c0.7,0.2,1.4-0.2,1.5-0.7l13.6-52.2c0.2-0.6-0.3-1.2-1-1.4L178,215
							c-0.7-0.2-1.4,0.2-1.5,0.8l-11.7,52.7C164.6,269,165.1,269.6,165.8,269.8z"/>
					</g>
				</g>
				<g class="st31">
					<path class="st34" d="M182.9,209.6l-3.7-1.1c-1.3-0.4-2-1.7-1.6-2.9l5.8-19.1c0.4-1.3,1.7-2,2.9-1.6l1.9,0.6l1.9,0.6
						c1.3,0.4,2,1.7,1.6,2.9l-5.8,19.1C185.5,209.2,184.2,210,182.9,209.6z"/>
					<path class="st35" d="M183.6,209.8l-1-0.3c-0.9-0.3-1.4-1.2-1.1-2l5.9-19.4c0.3-0.9,1.2-1.4,2-1.1l1,0.3c0.9,0.3,1.4,1.2,1.1,2
						l-5.9,19.4C185.4,209.6,184.5,210,183.6,209.8z"/>
					<path class="st36" d="M171,267.5l-14.4-4.3l18.8-62.3c0.6-1.8,2.4-2.8,4-2.3l8.6,2.6c1.7,0.5,2.6,2.3,2.1,4.1L171,267.5z
						 M154,272.3c-5.7,18.8-20.9,74.4-22,91.7l4.2,1.3c8.6-14.8,26.1-68.7,32.1-88.6L154,272.3z"/>
					<path class="st37" d="M187.1,215.1l3-9.8c0.5-1.8-0.4-3.6-2.1-4.1l-8.6-2.6c-1.7-0.5-3.5,0.5-4,2.3l-3,9.8L187.1,215.1z"/>
					<path class="st38" d="M187.1,215.1l2.8-8.9c0.5-1.6-0.5-3.3-2.2-3.8l-8.6-2.6c-1.7-0.5-3.4,0.4-3.9,2l-2.7,8.9L187.1,215.1z"/>
					<path class="st39" d="M132,363.8c-0.9,4.3-1.2,8-0.2,8.3c1,0.3,2.8-2.9,4.4-7L132,363.8z"/>
					
						<rect x="157.8" y="262.2" transform="matrix(0.2886 -0.9574 0.9574 0.2886 -142.8027 347.7216)" class="st40" width="9.5" height="15.5"/>
					<g>
						<defs>
							<path id="SVGID_16_" d="M170.9,215.4l-15.4,47l-0.3-0.1l-3.7,12.1l0.3,0.1c-6,20.8-18.7,72.6-19.8,89.3
								c-0.9,4.3-1.2,7.9-0.2,8.2c1,0.3,2.8-2.9,4.4-6.9c8.2-14.4,25.3-66.9,32.1-88.5l1.9,0.5l2.7-9.1l-0.3-0.1l17.5-62.7
								c0.5-1.8-0.4-3.6-2.1-4.1l-8.6-2.6c-1.7-0.5-3.5,0.5-4,2.3l-0.7,2.8L170.9,215.4z"/>
						</defs>
						<clipPath id="SVGID_17_">
							<use xlink:href="#SVGID_16_"  style="overflow:visible;"/>
						</clipPath>
					</g>
					<path class="st41" d="M188.4,205.2l-15.9,46.4c-0.7,1.8-2.6,2.8-4.5,2.3l0,0l18-52L188.4,205.2z"/>
					<g>
						<path class="st42" d="M167.5,253.7L167.5,253.7c0.8,0.3,1.7,0,1.9-0.5l17-51.9c0.2-0.6-0.5-0.7-1.4-0.9l-2.3-0.7
							c-0.9-0.3-1.5-0.6-1.7,0l-14.7,52.6C166.1,252.7,166.6,253.4,167.5,253.7z"/>
						<path class="st40" d="M168,253.8L168,253.8c0.6,0.2,1.3-0.1,1.5-0.6l15.8-49c0.2-0.5-0.2-1.2-0.9-1.4l-1.7-0.5
							c-0.7-0.2-1.3,0.1-1.5,0.6l-14.1,49.5C167,253,167.3,253.6,168,253.8z"/>
					</g>
				</g>
			</g>
			<g>
				<path class="st43" d="M57.1,224.2l-24.4-4.4c-0.5-0.1-1.1,0-1.6,0.2L1,233.8c-2.2,1-2.1,4.1,0.1,5l25.8,10.5
					c0.7,0.3,1.5,0.3,2.2-0.1l35.1-16.9c0.7-0.3,1.6-0.4,2.3,0l38.3,17.6c0.8,0.4,1.7,0.3,2.4-0.1l21.2-11.7
					c1.5-0.8,1.9-2.8,0.7-4.1l-14.5-11.8c-0.5-0.6-1.2-0.9-2-0.9l-37.3,3.3c-1.2,0-2.3-0.9-2.6-2.1l-0.1-0.3c-0.3-1.2-1.3-2-2.5-2.1
					l-7.1-0.4c-1.4-0.1-2.7,1-2.8,2.4l0,0C60.1,223.5,58.6,224.5,57.1,224.2z"/>
				<path class="st43" d="M68.7,236.6h-6c-2.1,0-3.9-1.7-3.9-3.9v0c0-2.1,1.7-3.9,3.9-3.9h6c2.1,0,3.9,1.7,3.9,3.9v0
					C72.6,234.8,70.8,236.6,68.7,236.6z"/>
			</g>
			<g>
				<path class="st29" d="M57.1,221.5l-24.4-4.4c-0.5-0.1-1.1,0-1.6,0.2L1,231.1c-2.2,1-2.1,4.1,0.1,5l25.8,10.5
					c0.7,0.3,1.5,0.3,2.2-0.1l35.1-16.9c0.7-0.3,1.6-0.4,2.3,0l38.3,17.6c0.8,0.4,1.7,0.3,2.4-0.1l21.2-11.7
					c1.5-0.8,1.9-2.8,0.7-4.1l-14.5-11.8c-0.5-0.6-1.2-0.9-2-0.9l-37.3,3.3c-1.2,0-2.3-0.9-2.6-2.1l-0.1-0.3c-0.3-1.2-1.3-2-2.5-2.1
					l-7.1-0.4c-1.4-0.1-2.7,1-2.8,2.4l0,0C60.1,220.7,58.6,221.8,57.1,221.5z"/>
				<path class="st29" d="M68.7,233.8h-6c-2.1,0-3.9-1.7-3.9-3.9v0c0-2.1,1.7-3.9,3.9-3.9h6c2.1,0,3.9,1.7,3.9,3.9v0
					C72.6,232.1,70.8,233.8,68.7,233.8z"/>
			</g>
		</g>
	</g>
</g>
</svg>
